<?xml version="1.0" ?><!DOCTYPE svg  PUBLIC '-//W3C//DTD SVG 1.1//EN'  'http://www.w3.org/Graphics/SVG/1.1/DTD/svg11.dtd'><svg enable-background="new 0 0 210 210" height="210px" id="Слой_1" version="1.1" viewBox="0 0 210 210" width="210px" xml:space="preserve" xmlns="http://www.w3.org/2000/svg" xmlns:xlink="http://www.w3.org/1999/xlink"><g><g><g><g><rect fill="#474747" height="7.22" width="163.739" x="15.76" y="42.863"/></g><g><rect fill="#474747" height="7.22" width="8.123" x="26.648" y="31.431"/></g><g><rect fill="#474747" height="7.22" width="8.123" x="44.096" y="31.431"/></g><g><rect fill="#474747" height="7.22" width="8.123" x="61.544" y="31.431"/></g></g></g><g><g><path d="M60.53,190.078h-7.6v-46.439c-13.953-7.231-22.838-21.702-22.838-37.538     c0-17.076,10.176-32.381,25.924-38.992l5.271-2.213v40l11.079,6.396l11.079-6.396v-40l5.271,2.213     c15.748,6.611,25.924,21.916,25.924,38.992c0,15.835-8.885,30.307-22.838,37.538v34.143h-7.6v-38.997l2.253-1.004     c12.505-5.571,20.585-18.006,20.585-31.68c0-11.995-6.123-22.926-15.995-29.224v32.408l-18.679,10.784l-18.679-10.784V76.877     c-9.872,6.298-15.995,17.229-15.995,29.224c0,13.674,8.08,26.109,20.585,31.68l2.253,1.004V190.078z" fill="#474747"/></g><g><polygon fill="#474747" points="142.483,190.078 134.883,190.078 134.883,118.402 162.615,118.402 162.615,177.782      155.015,177.782 155.015,126.002 142.483,126.002    "/></g><g><polygon fill="#474747" points="161.877,124.453 155.753,119.952 168.692,102.349 156.337,74.328 141.16,74.328 128.806,102.349      141.745,119.952 135.621,124.453 120.078,103.307 136.205,66.728 161.292,66.728 177.42,103.307    "/></g></g><polygon fill="#474747" points="12.15,20.3 12.15,159.285 43.869,159.285 43.869,152.065 19.37,152.065 19.37,27.52 191.504,27.52    191.504,152.065 173.056,152.065 173.056,159.285 198.724,159.285 198.724,20.3  "/></g></svg>