<?xml version="1.0" ?><svg viewBox="0 0 48 48" xmlns="http://www.w3.org/2000/svg"><title/><g data-name="Layer 4" id="Layer_4"><circle cx="5" cy="5" r="1"/><circle cx="8" cy="5" r="1"/><circle cx="11" cy="5" r="1"/><path d="M23,40a1,1,0,0,0,1-1V31a1,1,0,0,0-1-1H5a1,1,0,0,0-1,1v8a1,1,0,0,0,1,1ZM6,32H22v6H6Z"/><path d="M37,24a5,5,0,1,0,5,5A5.006,5.006,0,0,0,37,24Zm0,8a3,3,0,1,1,3-3A3,3,0,0,1,37,32Z"/><path d="M45.738,25.412A3.938,3.938,0,0,0,46,24a4,4,0,0,0-4-4,3.938,3.938,0,0,0-1.412.262,3.977,3.977,0,0,0-7.176,0A3.938,3.938,0,0,0,32,20a4,4,0,0,0-4,4,3.938,3.938,0,0,0,.262,1.412,4.013,4.013,0,0,0-.954.65A.993.993,0,0,0,27,26H6V14H42v3a1,1,0,0,0,2,0V13a1,1,0,0,0-1-1H5a1,1,0,0,0-1,1V27a1,1,0,0,0,1,1H26.136A3.942,3.942,0,0,0,26,29a4,4,0,0,0,2.262,3.588A3.938,3.938,0,0,0,28,34a4,4,0,0,0,4,4v9a1,1,0,0,0,1.707.707L37,44.414l3.293,3.293A1,1,0,0,0,42,47V41a1,1,0,0,0-2,0v3.586l-2.293-2.293a1,1,0,0,0-1.414,0L34,44.586V38.624l0,0a4.085,4.085,0,0,0,.561.523c.038.03.077.058.116.087a3.961,3.961,0,0,0,.644.388l.01,0a3.964,3.964,0,0,0,.717.246c.058.015.116.027.175.039a3.911,3.911,0,0,0,4.363-2.176c.018.007.037.009.055.016l.012,0,.009,0A3.927,3.927,0,0,0,42,38a4,4,0,0,0,4-4,3.938,3.938,0,0,0-.262-1.412,3.977,3.977,0,0,0,0-7.176Zm-1.6,5.57a1,1,0,0,0-.669,1.673A1.99,1.99,0,0,1,42,36a1.922,1.922,0,0,1-.659-.121,2.056,2.056,0,0,1-.68-.411,1,1,0,0,0-1.679.662,1.985,1.985,0,0,1-3.964,0,.975.975,0,0,0-.979-.922l-.018,0c-.011,0-.021.005-.032.005a1,1,0,0,0-.3.056.45.45,0,0,0-.048.016.993.993,0,0,0-.3.186,2.056,2.056,0,0,1-.68.411A1.922,1.922,0,0,1,32,36a1.99,1.99,0,0,1-1.467-3.345,1,1,0,0,0-.669-1.673,1.986,1.986,0,0,1,0-3.964,1,1,0,0,0,.669-1.673,1.99,1.99,0,0,1,2.812-2.812,1,1,0,0,0,1.673-.669,1.986,1.986,0,0,1,3.964,0,1,1,0,0,0,1.673.669,1.99,1.99,0,0,1,2.812,2.812,1,1,0,0,0,.669,1.673,1.986,1.986,0,0,1,0,3.964Z"/><path d="M45,0H3A3,3,0,0,0,0,3V9a1,1,0,0,0,1,1H43a1,1,0,0,0,0-2H2V3A1,1,0,0,1,3,2H45a1,1,0,0,1,1,1V19a1,1,0,0,0,2,0V3A3,3,0,0,0,45,0Z"/><path d="M47,36a1,1,0,0,0-1,1v8a1,1,0,0,1-1,1,1,1,0,0,0,0,2,3,3,0,0,0,3-3V37A1,1,0,0,0,47,36Z"/><path d="M29,46H3a1,1,0,0,1-1-1V13a1,1,0,0,0-2,0V45a3,3,0,0,0,3,3H29a1,1,0,0,0,0-2Z"/></g></svg>