<?xml version="1.0" ?><svg id="Layer_2" style="enable-background:new 0 0 64 64;" version="1.1" viewBox="0 0 64 64" xml:space="preserve" xmlns="http://www.w3.org/2000/svg" xmlns:xlink="http://www.w3.org/1999/xlink"><path d="M48,22H19.9c-0.5-3.4-3.4-6-6.9-6c-3.9,0-7,3.1-7,7s3.1,7,7,7c3.6,0,6.4-2.6,6.9-6H38v6h2v-2h4v2h2v-6h2V22z M13,28  c-2.8,0-5-2.2-5-5s2.2-5,5-5s5,2.2,5,5S15.8,28,13,28z M44,26h-4v-2h4V26z"/><path d="M61.7,60.3l-8-8c2.1-2.2,3.3-5.1,3.3-8.3c0-6.6-5.4-12-12-12s-12,5.4-12,12s5.4,12,12,12c2.7,0,5.2-0.9,7.2-2.4l8.1,8.1  L61.7,60.3z M35,44c0-5.5,4.5-10,10-10s10,4.5,10,10s-4.5,10-10,10S35,49.5,35,44z"/><path d="M2,2v46h29.6c-0.2-0.6-0.3-1.3-0.4-2H4V12h46v18.9c0.7,0.3,1.4,0.6,2,1V2H2z M4,4h38v6H4V4z M44,10V4h6v6H44z"/></svg>